<svg width="24" height="17" viewBox="0 0 24 17" fill="none" xmlns="http://www.w3.org/2000/svg">
<path d="M23.7891 0.109375V0.542969C23.4922 0.566406 23.2422 0.648438 23.0391 0.789062C22.8359 0.929688 22.6562 1.14453 22.5 1.43359C22.4531 1.52734 22.207 2.13281 21.7617 3.25L16.7812 16.3633H16.3242L12.3867 6.12109L8.05078 16.3633H7.61719L2.39062 3.39062C1.85938 2.08594 1.48828 1.29688 1.27734 1.02344C1.06641 0.75 0.710938 0.589844 0.210938 0.542969V0.109375H7.10156V0.542969C6.54688 0.558594 6.17578 0.644531 5.98828 0.800781C5.80859 0.949219 5.71875 1.13672 5.71875 1.36328C5.71875 1.66016 5.91016 2.28906 6.29297 3.25L9.41016 10.9609L11.9062 4.9375L11.25 3.25C10.8906 2.32812 10.6133 1.71484 10.418 1.41016C10.2227 1.09766 9.99609 0.875 9.73828 0.742188C9.48828 0.609375 9.11719 0.542969 8.625 0.542969V0.109375H16.3242V0.542969C15.7852 0.550781 15.3984 0.59375 15.1641 0.671875C15 0.726562 14.8711 0.820312 14.7773 0.953125C14.6836 1.07812 14.6367 1.22266 14.6367 1.38672C14.6367 1.56641 14.8125 2.11719 15.1641 3.03906L18.0586 10.5625L20.6484 3.75391C20.9219 3.05078 21.0898 2.57031 21.1523 2.3125C21.2148 2.05469 21.2461 1.81641 21.2461 1.59766C21.2461 1.27734 21.1367 1.02734 20.918 0.847656C20.6992 0.660156 20.2812 0.558594 19.6641 0.542969V0.109375H23.7891Z" fill="white"/>
</svg>
